<?xml version="1.0" encoding="utf-8"?>
<!-- Generator: Adobe Illustrator 21.1.0, SVG Export Plug-In . SVG Version: 6.00 Build 0)  -->
<svg version="1.1" id="Layer_1" xmlns="http://www.w3.org/2000/svg" xmlns:xlink="http://www.w3.org/1999/xlink" x="0px" y="0px"
	 viewBox="0 0 473.7 129.1" style="enable-background:new 0 0 473.7 129.1;" xml:space="preserve">
<style type="text/css">
	.st0{fill:#16A627;}
	.st1{fill:#333E48;}
</style>
<g>
	<polygon class="st0" points="383,26.1 408.8,28.3 383,30.6 	"/>
</g>
<g>
	<polygon class="st0" points="376.4,40.2 418.1,42.4 376.4,44.6 	"/>
</g>
<g>
	<polygon class="st0" points="371.9,53 425.1,55.2 371.9,57.4 	"/>
</g>
<g>
	<polygon class="st0" points="361.3,67.8 433.2,70 361.3,72.2 	"/>
</g>
<g>
	<polygon class="st0" points="361.3,83.7 441.2,85.9 361.3,88.1 	"/>
</g>
<g>
	<polygon class="st0" points="358.8,99.6 450.2,101.8 358.8,104 	"/>
</g>
<path class="st1" d="M25.8,14.3c13.7,0,24.2,2.6,31.5,7.8c7.3,5.2,11,12.9,11,23.2c0,5.6-1,10.4-3,14.4c-2,4-4.9,7.2-8.7,9.7
	c-3.8,2.5-8.4,4.3-13.8,5.4c-5.4,1.1-11.6,1.7-18.4,1.7H13.6v36.1H0V16.7c3.8-0.9,8.1-1.6,12.8-1.9C17.6,14.5,21.9,14.3,25.8,14.3z
	 M27,26.3c-5.8,0-10.3,0.1-13.3,0.4v38.2h10.3c4.7,0,8.9-0.3,12.6-0.9c3.7-0.6,6.9-1.6,9.5-3.1c2.6-1.5,4.6-3.4,6-6
	c1.4-2.5,2.1-5.8,2.1-9.7c0-3.7-0.7-6.8-2.2-9.3c-1.5-2.4-3.4-4.4-5.9-5.8c-2.5-1.5-5.4-2.5-8.6-3C34.1,26.5,30.6,26.3,27,26.3z"/>
<path class="st1" d="M143.4,112.6c-1.6-4.2-3.1-8.4-4.5-12.4c-1.4-4.1-2.9-8.2-4.4-12.4H90.4l-8.8,24.9H67.4
	c3.7-10.3,7.3-19.8,10.5-28.6c3.3-8.8,6.5-17.1,9.6-24.9c3.1-7.9,6.2-15.4,9.3-22.5c3.1-7.2,6.3-14.3,9.7-21.3h12.5
	c3.4,7,6.6,14.1,9.7,21.3c3.1,7.2,6.2,14.7,9.3,22.5c3.1,7.9,6.3,16.2,9.6,24.9c3.3,8.8,6.8,18.3,10.5,28.6L143.4,112.6L143.4,112.6
	z M130.6,76.5c-3-8.1-6-16-8.9-23.7c-2.9-7.6-6-15-9.2-22c-3.3,7-6.4,14.3-9.3,22c-2.9,7.6-5.9,15.5-8.8,23.7H130.6z"/>
<path class="st1" d="M183.6,112.6v-39c-6.5-10-12.5-19.9-18.3-29.6c-5.7-9.7-11.1-19.3-16.2-28.7h16c3.6,7.7,7.5,15.5,11.9,23.4
	c4.4,7.9,8.9,15.5,13.6,22.8c4.6-7.3,9.1-14.9,13.5-22.8c4.4-7.9,8.4-15.7,12.1-23.4h15.2c-5.1,9.4-10.4,18.9-16.2,28.6
	c-5.7,9.7-11.8,19.5-18.1,29.4v39.3L183.6,112.6L183.6,112.6z"/>
<path class="st0" d="M307.7,26.1c-2.2,2.4-4.7,5.4-7.5,8.8c-2.9,3.4-5.9,7.2-9.1,11.4c-3.2,4.2-6.5,8.6-9.8,13.2
	c-3.4,4.6-6.7,9.3-9.9,14c-3.2,4.7-6.3,9.4-9.2,14.1c-2.9,4.7-5.5,9.1-7.9,13.3h54.8v11.7h-70.6v-9.1c2-3.7,4.3-7.9,7-12.4
	c2.7-4.5,5.5-9.1,8.6-13.8c3-4.7,6.2-9.4,9.5-14.2c3.3-4.8,6.5-9.4,9.8-13.8c3.2-4.4,6.4-8.5,9.4-12.4c3-3.8,5.8-7.2,8.4-10.1h-50
	V15.3h66.7L307.7,26.1L307.7,26.1z"/>
<path class="st0" d="M351.2,112.6v-39c-6.5-10-12.5-19.9-18.3-29.6c-5.7-9.7-11.1-19.3-16.2-28.7h16c3.6,7.7,7.5,15.5,11.9,23.4
	c4.4,7.9,8.9,15.5,13.6,22.8c4.6-7.3,9.1-14.9,13.5-22.8c4.4-7.9,8.4-15.7,12.1-23.4h15.2c-5.1,9.4-10.4,18.9-16.2,28.6
	c-5.7,9.7-11.8,19.5-18.1,29.4v39.3L351.2,112.6L351.2,112.6z"/>
</svg>
