<?xml version="1.0" encoding="utf-8"?>
<!-- Generator: Adobe Illustrator 21.1.0, SVG Export Plug-In . SVG Version: 6.00 Build 0)  -->
<svg version="1.1" id="Layer_1" xmlns="http://www.w3.org/2000/svg" xmlns:xlink="http://www.w3.org/1999/xlink" x="0px" y="0px"
	 viewBox="0 0 320 155" style="enable-background:new 0 0 320 155;" xml:space="preserve">
<style type="text/css">
	.st0{fill:#0787EA;}
	.st1{fill:#333E48;}
</style>
<g>
	<path class="st0" d="M90.5,45.7h-6.9c-2.9,0-3.7,0.9-3.7,3.7v57c0,2.9,0.9,3.9,3.7,3.9h6.9c2.9,0,3.9-1,3.9-3.9v-57
		C94.3,46.6,93.3,45.7,90.5,45.7z"/>
	<path class="st0" d="M87.5,21.5h-0.9c-5.9,0-7.6,1.9-7.6,7.5v1.1c0,5.9,2,7.6,7.6,7.6h0.9c5.9,0,7.6-1.7,7.6-7.6V29
		C95.1,23.4,93.3,21.5,87.5,21.5z"/>
	<path class="st0" d="M133.4,43.8c-12.7,0-21.3,4.4-25.8,13c-1.4,2.5-0.6,4.4,2.1,5.6l5,2.1c2.9,1,3.5,0.7,5.4-1.9c2.6-4,7-6,13.1-6
		c9,0,12.5,4.2,12.5,12.3v3.5c-7.1-0.4-11.1-0.6-12-0.6c-20.3,0-28.3,5.2-28.3,20.1c0,6.9,2,12,6,15.2c4,3.4,11.2,5,21.8,5
		c10,0,17.5-1.1,22.5-3.2c3.5-1.5,4.5-2.7,4.5-7.1V69.5C160.1,52.4,151.2,43.8,133.4,43.8z M145.6,97.5c0,0.9-0.5,1.4-1.4,1.7
		c-3,0.6-7.1,1-12.5,1c-9.1,0-11.7-2.7-11.7-8.4c0-5.5,3-8.1,12-8.1c0.4,0,4.9,0.3,13.6,0.6V97.5z"/>
	<path class="st1" d="M230.5,43.8c-9.6,0-17.6,1.2-24.2,3.6c-4,1.6-4.9,3.1-4.9,7.1v79.3c0,2.9,1,3.9,3.9,3.9h6.9
		c2.9,0,3.7-1,3.7-3.9v-24c5.7,1.5,10.1,2.2,13.1,2.2c18.6,0,27.8-8.7,27.8-26.1V69C256.9,52.7,248.1,43.8,230.5,43.8z M242.4,85.6
		c0,8.9-4.7,13.3-14.3,13.3c-3.2,0-7.2-0.6-12.1-1.9V60c0-0.7,0.4-1.2,1.2-1.6c3.2-0.9,7-1.4,11.2-1.4c9.4,0,14,4.1,14,12.3V85.6z"
		/>
	<path class="st1" d="M304.1,59c2.9,0,3.9-1,3.9-3.9v-5.7c0-2.9-1-3.7-3.9-3.7h-14.2V34.5c0-2.9-1-3.7-3.9-3.7h-6.7
		c-2.9,0-3.9,0.9-3.9,3.7v11.2h-8.6c-2.9,0-3.7,0.9-3.7,3.7v5.7c0,2.9,0.9,3.9,3.7,3.9h8.6v25.6c0,10.6,2.1,18,6.5,22
		c4.2,4,11.6,5.9,22.1,5.5c3-0.1,4-1,4-4v-5.7c0-3-1-3.9-4-3.9c-5.5,0-9.2-0.9-11.1-2.7c-2-1.9-3-5.7-3-11.6V59H304.1z"/>
	<path class="st0" d="M52.7,45.4c-1.8-0.7-4-1.3-6.8-1.3c-1.4-0.1-2.9-0.2-4.4-0.2c-1.5,0-3.3,0.1-5.2,0.4c-2.9,0.3-6.1,0.9-9.8,1.8
		V21.9c0-2.9-0.9-3.9-3.7-3.9h-6.9C13,18,12,19,12,21.9v79.5c0,4,0.6,5,4.6,6.9c6.2,2.6,13.7,4,22.6,4c18.8,0,28.2-8.9,28.2-26.4
		V68.9C67.4,56.3,62.5,48.5,52.7,45.4z M52.9,85.2c0,8.9-4.7,13.3-14.3,13.3c-3.2,0-7.2-0.6-12.1-1.9v-37c0-0.7,0.4-1.2,1.2-1.6
		c3.2-0.9,7-1.4,11.2-1.4c9.4,0,14,4.1,14,12.3V85.2z"/>
	<path class="st1" d="M189.6,87.3c0,0-2.6,4.8-7.3,3.7C177.7,90,188.2,85.4,189.6,87.3z"/>
	<path class="st1" d="M180.6,91.2c-0.1-4.6-1.3-16.8-8.9-19.8c-0.5-0.2-1,0-1.2,0.5c-0.2,0.5,0,1,0.5,1.2c6.6,2.6,7.6,13.9,7.8,18.2
		c-4.9,0.6-8.1,4.2-8.1,9.3c0,5.7,3.9,9.5,9.4,9.5c5.6,0,9.5-3.9,9.5-9.5C189.6,95.3,185.9,91.5,180.6,91.2z M185.8,98.6
		c-1.2-3.2-5.1-4-5.1-4C187.1,93,185.8,98.6,185.8,98.6z"/>
</g>
</svg>
